<svg width="11" height="17" viewBox="0 0 11 17" fill="none" xmlns="http://www.w3.org/2000/svg">
<path d="M5.3318 16.0545H5.6678C6.29776 16.0545 6.61274 16.0545 6.83354 15.8941C6.90486 15.8423 6.96757 15.7796 7.01938 15.7082C7.1798 15.4874 7.1798 15.1725 7.1798 14.5425V9.75451H8.2298C8.81968 9.75451 9.11462 9.75451 9.32648 9.61294C9.4182 9.55166 9.49695 9.47291 9.55824 9.38119C9.6998 9.16932 9.6998 8.87438 9.6998 8.28451C9.6998 7.69463 9.6998 7.3997 9.55824 7.18783C9.49695 7.09611 9.4182 7.01736 9.32648 6.95607C9.11462 6.81451 8.81968 6.81451 8.2298 6.81451H7.1798V5.13451C7.1798 4.74312 7.1798 4.54742 7.24375 4.39306C7.329 4.18723 7.49253 4.02371 7.69835 3.93845C7.85272 3.87451 8.04841 3.87451 8.4398 3.87451C8.8312 3.87451 9.02689 3.87451 9.18126 3.81057C9.38708 3.72531 9.55061 3.56179 9.63586 3.35596C9.6998 3.2016 9.6998 3.0059 9.6998 2.61451V2.24118C9.6998 1.80592 9.6998 1.58829 9.6211 1.41951C9.53764 1.24053 9.39379 1.09667 9.2148 1.01321C9.04603 0.934509 8.8284 0.934509 8.39314 0.934509C6.86973 0.934509 6.10802 0.934509 5.51731 1.20996C4.89087 1.50208 4.38737 2.00557 4.09526 2.63201C3.8198 3.22273 3.8198 3.98443 3.8198 5.50784V6.81451H2.7698C2.17993 6.81451 1.88499 6.81451 1.67313 6.95607C1.58141 7.01736 1.50266 7.09611 1.44137 7.18783C1.2998 7.3997 1.2998 7.69463 1.2998 8.28451C1.2998 8.87438 1.2998 9.16932 1.44137 9.38119C1.50266 9.47291 1.58141 9.55166 1.67313 9.61294C1.88499 9.75451 2.17993 9.75451 2.76981 9.75451H3.8198V14.5425C3.8198 15.1725 3.8198 15.4874 3.98023 15.7082C4.03204 15.7796 4.09475 15.8423 4.16606 15.8941C4.38687 16.0545 4.70185 16.0545 5.3318 16.0545Z" stroke="#0C0C0C" stroke-width="1.05" stroke-linejoin="round"/>
</svg>
