<svg width="18" height="18" viewBox="0 0 18 18" fill="none" xmlns="http://www.w3.org/2000/svg">
<path d="M1.09961 7.33251C1.09961 4.66687 1.09961 3.33404 1.77845 2.3997C1.99768 2.09795 2.26305 1.83258 2.5648 1.61335C3.49914 0.934509 4.83197 0.934509 7.49761 0.934509H10.6966C13.3623 0.934509 14.6951 0.934509 15.6294 1.61335C15.9312 1.83258 16.1965 2.09795 16.4158 2.3997C17.0946 3.33404 17.0946 4.66687 17.0946 7.33251V10.5315C17.0946 13.1972 17.0946 14.53 16.4158 15.4643C16.1965 15.7661 15.9312 16.0314 15.6294 16.2507C14.6951 16.9295 13.3623 16.9295 10.6966 16.9295H7.49761C4.83197 16.9295 3.49914 16.9295 2.5648 16.2507C2.26305 16.0314 1.99768 15.7661 1.77845 15.4643C1.09961 14.53 1.09961 13.1972 1.09961 10.5315V7.33251Z" stroke="#0C0C0C" stroke-width="1.33292" stroke-linejoin="round"/>
<path d="M12.6516 8.93201C12.6516 10.8951 11.0602 12.4865 9.09711 12.4865C7.13404 12.4865 5.54267 10.8951 5.54267 8.93201C5.54267 6.96894 7.13404 5.37756 9.09711 5.37756C11.0602 5.37756 12.6516 6.96894 12.6516 8.93201Z" stroke="#0C0C0C" stroke-width="1.33292" stroke-linejoin="round"/>
</svg>
