<svg width="15" height="16" viewBox="0 0 15 16" fill="none" xmlns="http://www.w3.org/2000/svg">
<path d="M7.01092 6.87619V11.3095V9.41612C7.01092 8.01336 8.14808 6.87619 9.55085 6.87619V6.87619C10.3925 6.87619 11.0748 7.55849 11.0748 8.40015V11.3095M4.4248 6.87619V11.3095" stroke="#0C0C0C" stroke-width="1.05" stroke-linecap="round" stroke-linejoin="round"/>
<path d="M5.16332 4.65954C5.16332 5.06762 4.83251 5.39843 4.42444 5.39843C4.01636 5.39843 3.68555 5.06762 3.68555 4.65954C3.68555 4.25147 4.01636 3.92065 4.42444 3.92065C4.83251 3.92065 5.16332 4.25147 5.16332 4.65954Z" fill="#0C0C0C" fill-opacity="0.9" stroke="#0C0C0C" stroke-width="1.05"/>
<path d="M1.09961 6.65454C1.09961 4.43803 1.09961 3.32977 1.66407 2.55286C1.84637 2.30195 2.06702 2.08129 2.31793 1.89899C3.09485 1.33453 4.2031 1.33453 6.41961 1.33453H9.0796C11.2961 1.33453 12.4044 1.33453 13.1813 1.89899C13.4322 2.08129 13.6529 2.30195 13.8351 2.55286C14.3996 3.32977 14.3996 4.43803 14.3996 6.65453V9.31453C14.3996 11.531 14.3996 12.6393 13.8351 13.4162C13.6529 13.6671 13.4322 13.8878 13.1813 14.0701C12.4044 14.6345 11.2961 14.6345 9.07961 14.6345H6.41961C4.2031 14.6345 3.09485 14.6345 2.31793 14.0701C2.06702 13.8878 1.84637 13.6671 1.66407 13.4162C1.09961 12.6393 1.09961 11.531 1.09961 9.31453V6.65454Z" stroke="#0C0C0C" stroke-width="1.05" stroke-linejoin="round"/>
</svg>
